<svg width="60" height="60" viewBox="0 0 60 60" fill="none" xmlns="http://www.w3.org/2000/svg">
<path d="M46.25 31.625V40.875C46.25 48.675 38.975 55 30 55C21.025 55 13.75 48.675 13.75 40.875V31.625C13.75 39.425 21.025 45 30 45C38.975 45 46.25 39.425 46.25 31.625Z" stroke="white" stroke-width="3" stroke-linecap="round" stroke-linejoin="round"/>
<path d="M46.25 19.125C46.25 21.4 45.625 23.5 44.525 25.3C41.85 29.7 36.35 32.5 30 32.5C23.65 32.5 18.15 29.7 15.475 25.3C14.375 23.5 13.75 21.4 13.75 19.125C13.75 15.225 15.575 11.7 18.5 9.15C21.45 6.575 25.5 5 30 5C34.5 5 38.55 6.575 41.5 9.125C44.425 11.7 46.25 15.225 46.25 19.125Z" stroke="white" stroke-width="3" stroke-linecap="round" stroke-linejoin="round"/>
<path d="M46.25 19.125V31.625C46.25 39.425 38.975 45 30 45C21.025 45 13.75 39.425 13.75 31.625V19.125C13.75 11.325 21.025 5 30 5C34.5 5 38.55 6.575 41.5 9.125C44.425 11.7 46.25 15.225 46.25 19.125Z" stroke="white" stroke-width="3" stroke-linecap="round" stroke-linejoin="round"/>
</svg>
