<svg width="60" height="60" viewBox="0 0 60 60" fill="none" xmlns="http://www.w3.org/2000/svg">
<path d="M31.25 55H10.2C7.30005 55 4.92505 52.675 4.92505 49.825V12.725C4.92505 6.175 9.80005 3.2 15.775 6.125L26.875 11.575C29.275 12.75 31.25 15.875 31.25 18.525V55ZM31.25 55H47.025C52.425 55 54.925 52.5 54.925 47.1V37.65C54.925 37.475 54.925 37.325 54.9 37.175C54.75 32.375 52.0501 30.675 48.7501 29.95L43.675 28.825L32.425 26.3L31.25 26.05V55ZM13.75 22.5H22.425M13.75 32.5H22.425" stroke="white" stroke-width="3" stroke-linecap="round" stroke-linejoin="round"/>
<path d="M43.675 28.825V36.875M43.675 28.825L32.425 26.3V36.875C32.425 39.975 34.95 42.5 38.05 42.5C41.15 42.5 43.675 39.975 43.675 36.875M43.675 28.825L48.75 29.95C52.05 30.675 54.75 32.375 54.9 37.175C54.824 38.6101 54.2013 39.9617 53.1598 40.952C52.1184 41.9423 50.7372 42.4963 49.3 42.5C46.2 42.5 43.675 39.975 43.675 36.875" stroke="white" stroke-width="3" stroke-linecap="round" stroke-linejoin="round"/>
</svg>
